<svg xmlns="http://www.w3.org/2000/svg" viewBox="0 0 448 512">
  <path fill="#ffffff" d="M380.9 97.1C339-10.3 223-43.8 138.2 17.5 63.2 70.3 34.8 166.2 54.1 250.8L5 476l229.8-49.4c82.4 45.1 182.5 18.8 238.2-61.1 57.8-83.2 40.1-196.6-92.1-268.4zm-31.2 241.1c-21.1 59.2-80.9 90.5-137.8 67.8l-17.2-7.1-86 18.5 18.2-83.6-8.9-17.9c-24.7-50.1-14-110.9 26.7-146.9 45.5-40.5 117.7-43.9 170.2-8.4 41.8 28.9 56.5 87.1 34.5 138.2z"/>
  <path fill="#25d366" d="M380.9 97.1C339-10.3 223-43.8 138.2 17.5 63.2 70.3 34.8 166.2 54.1 250.8L5 476l229.8-49.4c82.4 45.1 182.5 18.8 238.2-61.1 57.8-83.2 40.1-196.6-92.1-268.4zm-31.2 241.1c-21.1 59.2-80.9 90.5-137.8 67.8l-17.2-7.1-86 18.5 18.2-83.6-8.9-17.9c-24.7-50.1-14-110.9 26.7-146.9 45.5-40.5 117.7-43.9 170.2-8.4 41.8 28.9 56.5 87.1 34.5 138.2z" opacity="0.9"/>
  <path fill="#ffffff" d="M215.3 134.6c-55.1-3.1-99.1 46-94.7 97.9 2.9 42.1 31.3 76 70.1 88.1 11.3 3.7 24.2 2.9 34.8-2.5l26.6 14.4c6.4 3.5 14.4 2 18.8-3.4l14.5-18.8c4.4-5.7 3.5-13.8-2-18.5l-28.2-22.6c-4.2-3.4-9.3-5.8-14.7-6.8-13.1-2.5-21.9-11.9-24.8-24.8-2.7-12.2.6-25.2 8.6-34.9 5.4-7.1 13-12.4 21.7-14.3 13.2-2.7 25.8 1.4 35.5 11.3l20.5 20.3c5.1 5 13.4 5.4 18.8 1.1l18.8-15.8c5.3-4.4 6.1-12.4 1.6-17.8l-20.4-24.6c-22.4-26.8-56.2-40.6-90.4-38.5z"/>
</svg>
